<?xml version="1.0" encoding="utf-8"?>
<!-- Generator: Adobe Illustrator 24.3.0, SVG Export Plug-In . SVG Version: 6.00 Build 0)  -->
<svg version="1.1" id="_x30_" xmlns="http://www.w3.org/2000/svg" xmlns:xlink="http://www.w3.org/1999/xlink" x="0px" y="0px"
	 viewBox="0 0 500 500" style="enable-background:new 0 0 500 500;" xml:space="preserve">
<style type="text/css">
	.st0{fill:none;stroke:#000000;stroke-width:0.25;stroke-miterlimit:10;}
</style>
<g id="LWPOLYLINE">
	<path class="st0" d="M312.86,434.46V404.7c0-3.52-2.86-6.38-6.38-6.38c-3.52,0-6.38,2.86-6.38,6.38v29.76
		c0,3.52,2.86,6.38,6.38,6.38C310.01,440.84,312.86,437.98,312.86,434.46z"/>
</g>
<g id="LWPOLYLINE_1_">
	<path class="st0" d="M199.48,434.46V404.7c0-3.52-2.86-6.38-6.38-6.38s-6.38,2.86-6.38,6.38c0,0,0,29.76,0,29.76
		c0,3.52,2.86,6.38,6.38,6.38S199.48,437.98,199.48,434.46z"/>
</g>
<g id="LWPOLYLINE_2_">
	<path class="st0" d="M312.86,321.07v-29.76c0-3.52-2.86-6.38-6.38-6.38c-3.52,0-6.38,2.86-6.38,6.38v29.76
		c0,3.52,2.86,6.38,6.38,6.38C310.01,327.45,312.86,324.6,312.86,321.07z"/>
</g>
<g id="LWPOLYLINE_3_">
	<path class="st0" d="M199.48,321.07v-29.76c0-3.52-2.86-6.38-6.38-6.38s-6.38,2.86-6.38,6.38v29.76c0,3.52,2.86,6.38,6.38,6.38
		S199.48,324.6,199.48,321.07z"/>
</g>
<g id="LWPOLYLINE_4_">
	<path class="st0" d="M312.86,207.69v-29.76c0-3.52-2.86-6.38-6.38-6.38c-3.52,0-6.38,2.86-6.38,6.38v29.76
		c0,3.52,2.86,6.38,6.38,6.38C310.01,214.07,312.86,211.21,312.86,207.69z"/>
</g>
<g id="LWPOLYLINE_5_">
	<path class="st0" d="M199.48,207.69v-29.76c0-3.52-2.86-6.38-6.38-6.38s-6.38,2.86-6.38,6.38v29.76c0,3.52,2.86,6.38,6.38,6.38
		S199.48,211.21,199.48,207.69z"/>
</g>
<g id="LWPOLYLINE_6_">
	<path class="st0" d="M312.86,94.3V64.54c0-3.52-2.86-6.38-6.38-6.38c-3.52,0-6.38,2.86-6.38,6.38V94.3c0,3.52,2.86,6.38,6.38,6.38
		C310.01,100.68,312.86,97.83,312.86,94.3z"/>
</g>
<g id="LWPOLYLINE_7_">
	<path class="st0" d="M199.48,94.3V64.54c0-3.52-2.86-6.38-6.38-6.38s-6.38,2.86-6.38,6.38V94.3c0,3.52,2.86,6.38,6.38,6.38
		S199.48,97.83,199.48,94.3z"/>
</g>
<g id="LWPOLYLINE_8_">
	<path class="st0" d="M357.51,348v29.76c0,3.52,2.86,6.38,6.38,6.38c3.52,0,6.38-2.86,6.38-6.38V348c0-3.52-2.86-6.38-6.38-6.38
		C360.36,341.63,357.51,344.48,357.51,348z"/>
</g>
<g id="LWPOLYLINE_9_">
	<path class="st0" d="M244.12,348v29.76c0,3.52,2.86,6.38,6.38,6.38s6.38-2.86,6.38-6.38V348c0-3.52-2.86-6.38-6.38-6.38
		S244.12,344.48,244.12,348z"/>
</g>
<g id="LWPOLYLINE_10_">
	<path class="st0" d="M130.74,348v29.76c0,3.52,2.86,6.38,6.38,6.38s6.38-2.86,6.38-6.38V348c0-3.52-2.86-6.38-6.38-6.38
		S130.74,344.48,130.74,348z"/>
</g>
<g id="LWPOLYLINE_11_">
	<path class="st0" d="M357.51,234.62v29.76c0,3.52,2.86,6.38,6.38,6.38c3.52,0,6.38-2.86,6.38-6.38v-29.76
		c0-3.52-2.86-6.38-6.38-6.38C360.36,228.24,357.51,231.1,357.51,234.62z"/>
</g>
<g id="LWPOLYLINE_12_">
	<path class="st0" d="M244.12,234.62v29.76c0,3.52,2.86,6.38,6.38,6.38s6.38-2.86,6.38-6.38v-29.76c0-3.52-2.86-6.38-6.38-6.38
		S244.12,231.1,244.12,234.62z"/>
</g>
<g id="LWPOLYLINE_13_">
	<path class="st0" d="M130.74,234.62v29.76c0,3.52,2.86,6.38,6.38,6.38s6.38-2.86,6.38-6.38v-29.76c0-3.52-2.86-6.38-6.38-6.38
		S130.74,231.1,130.74,234.62z"/>
</g>
<g id="LWPOLYLINE_14_">
	<path class="st0" d="M357.51,121.23V151c0,3.52,2.86,6.38,6.38,6.38c3.52,0,6.38-2.86,6.38-6.38v-29.76c0-3.52-2.86-6.38-6.38-6.38
		C360.36,114.85,357.51,117.71,357.51,121.23z"/>
</g>
<g id="LWPOLYLINE_15_">
	<path class="st0" d="M244.12,121.23V151c0,3.52,2.86,6.38,6.38,6.38s6.38-2.86,6.38-6.38v-29.76c0-3.52-2.86-6.38-6.38-6.38
		S244.12,117.71,244.12,121.23z"/>
</g>
<g id="LWPOLYLINE_16_">
	<path class="st0" d="M130.74,121.23V151c0,3.52,2.86,6.38,6.38,6.38s6.38-2.86,6.38-6.38v-29.76c0-3.52-2.86-6.38-6.38-6.38
		S130.74,117.71,130.74,121.23z"/>
</g>
<g id="LWPOLYLINE_17_">
	<path class="st0" d="M392.23,22.73c15.66,0,28.35,12.69,28.35,28.35v396.85c0,15.66-12.69,28.35-28.35,28.35H108.77
		c-15.66,0-28.35-12.69-28.35-28.35V51.07c0-15.66,12.69-28.35,28.35-28.35H392.23z"/>
</g>
<g id="CIRCLE">
	<path class="st0" d="M128.61,79.42c0-4.7,3.81-8.5,8.5-8.5s8.5,3.81,8.5,8.5s-3.81,8.5-8.5,8.5S128.61,84.12,128.61,79.42
		L128.61,79.42z"/>
</g>
<g id="CIRCLE_1_">
	<path class="st0" d="M355.38,79.42c0-4.7,3.81-8.5,8.5-8.5s8.5,3.81,8.5,8.5s-3.81,8.5-8.5,8.5S355.38,84.12,355.38,79.42
		L355.38,79.42z"/>
</g>
<g id="CIRCLE_2_">
	<path class="st0" d="M128.61,419.58c0-4.7,3.81-8.5,8.5-8.5s8.5,3.81,8.5,8.5s-3.81,8.5-8.5,8.5S128.61,424.28,128.61,419.58
		L128.61,419.58z"/>
</g>
<g id="CIRCLE_3_">
	<path class="st0" d="M355.38,419.58c0-4.7,3.81-8.5,8.5-8.5s8.5,3.81,8.5,8.5s-3.81,8.5-8.5,8.5S355.38,424.28,355.38,419.58
		L355.38,419.58z"/>
</g>
</svg>
